<svg width="27" height="24" viewBox="0 0 27 24" fill="none" xmlns="http://www.w3.org/2000/svg">
<path d="M19.1665 20.4013L18.2025 21.1335L15.1768 23.0966C14.6361 23.4173 14.068 23.7655 13.485 24C12.156 23.4185 10.5499 22.3488 9.37085 21.5261L6.84107 19.6052C3.34383 16.6637 -0.000590366 12.5692 7.8169e-08 7.75753C0.000431977 4.23485 2.04616 0.972048 5.5932 0.184656C6.02193 0.0894842 6.45143 0.0483197 6.88781 0.0117109C7.08287 -0.00815777 7.29106 0.00325849 7.48744 0.00331338C9.58986 0.00375246 11.3048 0.514575 12.9167 1.97865C13.1243 2.16713 13.3316 2.3628 13.4901 2.59546C13.7261 2.27389 14.0408 1.99051 14.3527 1.74446C15.8638 0.552556 17.4615 0.00710026 19.355 0.00375222C21.8398 -0.000693531 23.8261 0.725172 25.4017 2.76907C26.7966 4.57854 27.1968 6.85455 26.9155 9.08538C26.3333 13.7032 22.6874 17.6647 19.1665 20.4013Z" fill="#EA5B0C"/>
</svg>
