<svg width="16" height="15" viewBox="0 0 16 15" fill="none" xmlns="http://www.w3.org/2000/svg">
<path d="M11.3273 12.5086L10.7893 12.9257L9.10063 14.044C8.79886 14.2267 8.48177 14.425 8.15642 14.5586C7.41466 14.2273 6.5183 13.6179 5.86023 13.1493L4.44833 12.055C2.49648 10.3794 0.62992 8.04691 0.630249 5.30588C0.63049 3.29915 1.77224 1.44046 3.75189 0.99191C3.99116 0.937694 4.23087 0.914245 4.47442 0.89339C4.58329 0.882072 4.69948 0.888575 4.80908 0.888606C5.98247 0.888856 6.93961 1.17985 7.83924 2.01388C7.95507 2.12125 8.07077 2.23272 8.15922 2.36525C8.29095 2.18206 8.46661 2.02064 8.64068 1.88047C9.48404 1.20149 10.3757 0.890763 11.4325 0.888856C12.8193 0.886324 13.9279 1.29982 14.8072 2.46415C15.5857 3.49494 15.8091 4.79149 15.6521 6.06231C15.3272 8.6929 13.2924 10.9496 11.3273 12.5086Z" fill="#EA5B0C"/>
</svg>
