<svg width="21" height="18" viewBox="0 0 21 18" fill="none" xmlns="http://www.w3.org/2000/svg">
<path d="M14.9073 15.301L14.1575 15.8502L11.8042 17.3224C11.3837 17.563 10.9418 17.8241 10.4884 18C9.45466 17.5639 8.2055 16.7616 7.28844 16.1446L5.32083 14.7039C2.60076 12.4978 -0.000459174 9.4269 6.07981e-08 5.81815C0.000335982 3.17613 1.59146 0.729036 4.35027 0.138492C4.68373 0.0671131 5.01778 0.0362398 5.35718 0.00878318C5.5089 -0.00611833 5.67083 0.00244387 5.82356 0.00248503C7.45878 0.00281435 8.79264 0.385931 10.0464 1.48399C10.2078 1.62535 10.369 1.7721 10.4923 1.9466C10.6758 1.70541 10.9206 1.49288 11.1632 1.30834C12.3385 0.414417 13.5811 0.00532519 15.0539 0.00281417C16.9865 -0.000520148 18.5314 0.543879 19.7569 2.0768C20.8418 3.43391 21.153 5.14091 20.9343 6.81404C20.4815 10.2774 17.6458 13.2486 14.9073 15.301Z" fill="white"/>
</svg>
