<svg width="404" height="155" viewBox="0 0 404 155" fill="none" xmlns="http://www.w3.org/2000/svg">
<g clip-path="url(#clip0_18_16)">
<rect width="404" height="155" fill="white"/>
<path d="M18.9196 38.5063C20.7123 38.1367 22.5031 37.9125 24.2577 37.8296L28.5907 25.6004L24.5882 15.4369L20.1954 30.6913L22.2005 6.93847L12.1621 -0.345946L16.8702 31.7416L11.1769 12.9361L9.11983 19.6121L-0.321893 15.3067L14.0454 39.8871C15.6013 39.3194 17.2346 38.8568 18.9203 38.5093L18.9196 38.5063Z" fill="#9ABD36"/>
<path d="M36.6088 44.9176C29.7084 36.0765 8.04495 40.5427 5.204 51.3921C4.03715 55.8484 4.3554 62.3612 5.69345 69.9799C9.69126 69.9508 14.6526 69.425 20.5552 67.9166C20.5552 67.9166 15.5099 70.902 6.09334 72.136C7.4438 79.0574 9.55914 86.7756 12.1212 94.6358C15.5384 94.4332 19.522 93.8716 24.0653 92.7326C24.0653 92.7326 20.119 95.0438 12.7043 96.4052C22.3286 125.26 37.6104 155.335 42.7821 154.269C50.9416 152.586 51.5924 64.1181 36.6076 44.9195L36.6088 44.9176Z" fill="#EA5B0C"/>
<path d="M100.223 42.184C101.759 42.184 102.953 43.2507 103.807 45.384C100.137 55.112 98.3027 67.784 98.3027 83.4V97.352H98.5587C103.337 92.5733 110.719 77.8107 120.703 53.064C123.263 49.8213 125.225 48.2 126.591 48.2H127.103C128.553 48.2 129.705 49.0107 130.559 50.632V53.064C128.169 54.5147 122.324 66.5893 113.023 89.288L102.527 105.032V105.288C112.169 115.272 122.196 120.264 132.607 120.264H137.471C140.628 120.264 142.761 119.965 143.871 119.368C146.175 120.307 147.327 121.672 147.327 123.464V124.488C147.327 126.621 143.615 127.688 136.191 127.688H134.271C122.068 127.688 110.42 122.653 99.3267 112.584H98.5587V127.432C98.5587 130.333 97.236 131.784 94.5907 131.784C92.2014 131.784 91.0067 130.333 91.0067 127.432V112.2C87.8494 109.811 86.2707 107.251 86.2707 104.52C86.2707 102.216 87.7214 101.064 90.6227 101.064V82.888C90.6227 66.3333 92.756 53.192 97.0227 43.464C98.132 42.6107 99.1987 42.184 100.223 42.184ZM180.642 48.968L183.842 47.944C186.743 47.944 188.194 51.784 188.194 59.464L192.162 89.032L192.674 89.544L207.394 84.168C209.356 84.168 210.423 85.6613 210.594 88.648C210.594 90.8667 205.175 93.5547 194.338 96.712L193.826 96.968V97.48C193.826 99.272 196.642 108.616 202.274 125.512V125.768C202.274 127.389 200.951 128.755 198.306 129.864C195.831 129.864 194.21 126.92 193.442 121.032C191.479 116.765 189.09 109.725 186.274 99.912H185.762C174.583 102.216 168.994 104.179 168.994 105.8C162.85 119.112 158.199 125.768 155.042 125.768C153.25 125.768 152.183 124.616 151.842 122.312C151.842 120.264 154.103 116.253 158.626 110.28L160.674 105.8H157.474L155.042 106.312C151.884 105.544 150.306 103.923 150.306 101.448C151.586 98.4613 153.463 96.968 155.938 96.968L159.138 98.248C163.916 98.248 166.306 96.4987 166.306 93C170.658 82.76 175.436 68.0827 180.642 48.968ZM181.794 72.264L174.242 95.048C181.239 93.6827 184.738 92.36 184.738 91.08C183.458 78.536 182.476 72.264 181.794 72.264ZM236.281 52.168H236.793C247.118 54.0453 252.281 59.0373 252.281 67.144V69.448C252.281 78.408 246.563 87.3253 235.129 96.2V96.712C253.646 113.267 266.446 121.544 273.529 121.544C274.809 122.483 275.449 123.635 275.449 125C275.449 126.963 273.998 128.2 271.097 128.712C264.014 128.712 250.787 120.179 231.417 103.112L225.913 100.168H225.529C227.918 109.725 229.113 117.107 229.113 122.312C229.113 124.531 227.747 126.109 225.017 127.048C221.091 127.048 218.617 117.448 217.593 98.248C214.862 89.3733 213.497 82.2907 213.497 77V75.848C213.497 68.0827 215.203 64.2 218.617 64.2L221.049 65.48H221.817C225.913 56.6053 230.734 52.168 236.281 52.168ZM225.913 86.344L225.529 91.08C233.465 91.08 239.865 84.5093 244.729 71.368V66.632C244.729 62.8773 242.169 60.616 237.049 59.848H236.281C230.905 59.848 227.449 68.68 225.913 86.344ZM297.149 55.752L300.349 55.24H301.629C303.335 55.24 305.213 56.3067 307.261 58.44C311.015 58.44 316.349 63.1333 323.261 72.52C329.149 83.6133 332.093 93.4693 332.093 102.088C332.093 113.864 327.826 121.715 319.293 125.64L311.229 127.304C298.429 127.304 289.213 117.704 283.581 98.504C282.301 93.4693 281.661 88.5627 281.661 83.784V82.504C281.661 68.0827 286.823 59.1653 297.149 55.752ZM295.997 68.04L293.181 66.888C290.535 70.0453 289.213 74.6107 289.213 80.584V84.04C289.213 99.8267 294.546 111.304 305.213 118.472L308.797 119.24H313.661C318.098 119.24 321.298 116.467 323.261 110.92L324.029 105.288V101.32C324.029 88.52 318.951 77.0427 308.797 66.888L303.549 65.352H303.293C301.586 65.352 299.154 66.248 295.997 68.04ZM362.228 44.232L400.628 41.8C401.737 41.8 402.804 42.8667 403.828 45C403.828 48.2427 400.073 49.864 392.564 49.864L370.164 51.144L369.652 51.4C371.785 65.3093 372.852 91.72 372.852 130.632C372.425 134.387 371.06 136.264 368.756 136.264C366.537 136.264 365.257 134.557 364.916 131.144V101.448C364.916 81.6507 364.02 65.1387 362.228 51.912C346.953 53.3627 339.316 55.0693 339.316 57.032L338.164 57.544C335.518 56.776 334.196 55.4107 334.196 53.448C334.196 48.7547 343.54 45.6827 362.228 44.232Z" fill="#EA5B0C"/>
</g>
<defs>
<clipPath id="clip0_18_16">
<rect width="404" height="155" fill="white"/>
</clipPath>
</defs>
</svg>
