<svg width="21" height="18" viewBox="0 0 21 18" fill="none" xmlns="http://www.w3.org/2000/svg">
<path d="M14.9073 15.301L14.1575 15.8502L11.8042 17.3224C11.3837 17.563 10.9418 17.8241 10.4884 18C9.45466 17.5639 8.2055 16.7616 7.28844 16.1446L5.32083 14.7039C2.60076 12.4978 -0.000459174 9.4269 6.07981e-08 5.81815C0.000335982 3.17613 1.59146 0.729036 4.35027 0.138492C4.68373 0.0671131 5.01778 0.0362398 5.35718 0.00878318C5.5089 -0.00611833 5.67083 0.00244387 5.82356 0.00248503C7.45878 0.00281435 8.79264 0.385931 10.0464 1.48399C10.2078 1.62535 10.369 1.7721 10.4923 1.9466C10.6758 1.70541 10.9206 1.49288 11.1632 1.30834C12.3385 0.414417 13.5811 0.00532519 15.0539 0.00281417C16.9865 -0.000520148 18.5314 0.543879 19.7569 2.0768C20.8418 3.43391 21.153 5.14091 20.9343 6.81404C20.4815 10.2774 17.6458 13.2486 14.9073 15.301ZM5.43249 1.43871C3.27396 1.54537 1.77001 3.02436 1.49664 5.10802C1.35921 6.15557 1.55723 7.24499 1.94116 8.22466C3.25257 11.571 6.66613 14.2089 9.76469 16.001L10.2367 16.2744C10.3164 16.3195 10.4033 16.3768 10.4893 16.4076C10.8525 16.2551 11.1977 16.0308 11.5353 15.8303C12.8092 15.0735 14.0172 14.227 15.1441 13.276C17.2739 11.4607 19.3503 9.00299 19.5358 6.1475C19.6882 3.80336 18.1934 1.57266 15.643 1.43986C13.2472 1.31513 12.2582 2.02205 10.867 3.69234C10.7456 3.83806 10.6045 3.98287 10.4984 4.13872C9.36422 2.83587 8.56519 1.61559 6.56433 1.44801L5.43249 1.43871Z" fill="white"/>
</svg>
